<svg xmlns="http://www.w3.org/2000/svg" width="800" height="600" viewBox="0 0 800 600">
<defs><linearGradient id="metal" x1="0" y1="0" x2="1" y2="1"><stop offset="0" stop-color="#f1f5f9"/><stop offset="0.45" stop-color="#94a3b8"/><stop offset="0.6" stop-color="#e2e8f0"/><stop offset="1" stop-color="#64748b"/></linearGradient><pattern id="grid" width="40" height="40" patternUnits="userSpaceOnUse"><path d="M40 0H0V40" fill="none" stroke="#172033" stroke-width="1"/></pattern></defs>
<rect width="800" height="600" fill="#090d16"/><rect width="800" height="600" fill="url(#grid)" opacity=".8"/>
<rect x="160" y="120" width="480" height="360" rx="16" fill="#273449" stroke="#475569" stroke-width="4"/>
<rect x="176" y="136" width="448" height="328" rx="11" fill="#0f172a" stroke="#1e293b" stroke-width="2"/>
<rect x="270" y="248" width="260" height="104" rx="8" fill="#111827" stroke="#334155"/>
<text x="400" y="278" text-anchor="middle" font-family="sans-serif" font-size="22" font-weight="800" fill="#38bdf8">M4-BRACKET</text>
<text x="400" y="302" text-anchor="middle" font-family="monospace" font-size="12" fill="#94a3b8">MASTER REFERENCE · REV-02</text>
<text x="400" y="325" text-anchor="middle" font-family="monospace" font-size="12" fill="#64748b">EXPECTED 8 SCREWS</text>
<text x="400" y="344" text-anchor="middle" font-family="monospace" font-size="10" fill="#475569">ANCHORS A/B/C/D = ALIGNMENT REFERENCE</text>
<g transform="translate(200,160)"><rect x="-16" y="-16" width="32" height="32" rx="5" fill="#111827" stroke="#334155"/><circle r="10" fill="none" stroke="#38bdf8" stroke-width="2"/><path d="M-14 0H14M0-14V14" stroke="#38bdf8" stroke-width="2" stroke-linecap="round"/><circle r="3" fill="#38bdf8"/><text x="20" y="5" font-family="monospace" font-size="13" font-weight="700" fill="#38bdf8">A</text></g><g transform="translate(600,160)"><rect x="-16" y="-16" width="32" height="32" rx="5" fill="#111827" stroke="#334155"/><circle r="10" fill="none" stroke="#38bdf8" stroke-width="2"/><path d="M-14 0H14M0-14V14" stroke="#38bdf8" stroke-width="2" stroke-linecap="round"/><circle r="3" fill="#38bdf8"/><text x="20" y="5" font-family="monospace" font-size="13" font-weight="700" fill="#38bdf8">B</text></g><g transform="translate(200,440)"><rect x="-16" y="-16" width="32" height="32" rx="5" fill="#111827" stroke="#334155"/><circle r="10" fill="none" stroke="#38bdf8" stroke-width="2"/><path d="M-14 0H14M0-14V14" stroke="#38bdf8" stroke-width="2" stroke-linecap="round"/><circle r="3" fill="#38bdf8"/><text x="20" y="5" font-family="monospace" font-size="13" font-weight="700" fill="#38bdf8">C</text></g><g transform="translate(600,440)"><rect x="-16" y="-16" width="32" height="32" rx="5" fill="#111827" stroke="#334155"/><circle r="10" fill="none" stroke="#38bdf8" stroke-width="2"/><path d="M-14 0H14M0-14V14" stroke="#38bdf8" stroke-width="2" stroke-linecap="round"/><circle r="3" fill="#38bdf8"/><text x="20" y="5" font-family="monospace" font-size="13" font-weight="700" fill="#38bdf8">D</text></g><g transform="translate(240,200)"><circle r="24" fill="#0b1220" stroke="#64748b" stroke-width="3"/><circle r="17" fill="url(#metal)" stroke="#334155" stroke-width="1.5"/><path d="M-9 0H9M0-9V9" stroke="#111827" stroke-width="3" stroke-linecap="round"/><circle r="3" fill="#020617"/><text y="38" text-anchor="middle" font-family="monospace" font-size="11" font-weight="700" fill="#cbd5e1">#1</text></g><g transform="translate(342.4,200)"><circle r="24" fill="#0b1220" stroke="#64748b" stroke-width="3"/><circle r="17" fill="url(#metal)" stroke="#334155" stroke-width="1.5"/><path d="M-9 0H9M0-9V9" stroke="#111827" stroke-width="3" stroke-linecap="round"/><circle r="3" fill="#020617"/><text y="38" text-anchor="middle" font-family="monospace" font-size="11" font-weight="700" fill="#cbd5e1">#2</text></g><g transform="translate(457.6,200)"><circle r="24" fill="#0b1220" stroke="#64748b" stroke-width="3"/><circle r="17" fill="url(#metal)" stroke="#334155" stroke-width="1.5"/><path d="M-9 0H9M0-9V9" stroke="#111827" stroke-width="3" stroke-linecap="round"/><circle r="3" fill="#020617"/><text y="38" text-anchor="middle" font-family="monospace" font-size="11" font-weight="700" fill="#cbd5e1">#3</text></g><g transform="translate(560,200)"><circle r="24" fill="#0b1220" stroke="#64748b" stroke-width="3"/><circle r="17" fill="url(#metal)" stroke="#334155" stroke-width="1.5"/><path d="M-9 0H9M0-9V9" stroke="#111827" stroke-width="3" stroke-linecap="round"/><circle r="3" fill="#020617"/><text y="38" text-anchor="middle" font-family="monospace" font-size="11" font-weight="700" fill="#cbd5e1">#4</text></g><g transform="translate(240,400)"><circle r="24" fill="#0b1220" stroke="#64748b" stroke-width="3"/><circle r="17" fill="url(#metal)" stroke="#334155" stroke-width="1.5"/><path d="M-9 0H9M0-9V9" stroke="#111827" stroke-width="3" stroke-linecap="round"/><circle r="3" fill="#020617"/><text y="38" text-anchor="middle" font-family="monospace" font-size="11" font-weight="700" fill="#cbd5e1">#5</text></g><g transform="translate(342.4,400)"><circle r="24" fill="#0b1220" stroke="#64748b" stroke-width="3"/><circle r="17" fill="url(#metal)" stroke="#334155" stroke-width="1.5"/><path d="M-9 0H9M0-9V9" stroke="#111827" stroke-width="3" stroke-linecap="round"/><circle r="3" fill="#020617"/><text y="38" text-anchor="middle" font-family="monospace" font-size="11" font-weight="700" fill="#cbd5e1">#6</text></g><g transform="translate(457.6,400)"><circle r="24" fill="#0b1220" stroke="#64748b" stroke-width="3"/><circle r="17" fill="url(#metal)" stroke="#334155" stroke-width="1.5"/><path d="M-9 0H9M0-9V9" stroke="#111827" stroke-width="3" stroke-linecap="round"/><circle r="3" fill="#020617"/><text y="38" text-anchor="middle" font-family="monospace" font-size="11" font-weight="700" fill="#cbd5e1">#7</text></g><g transform="translate(560,400)"><circle r="24" fill="#0b1220" stroke="#64748b" stroke-width="3"/><circle r="17" fill="url(#metal)" stroke="#334155" stroke-width="1.5"/><path d="M-9 0H9M0-9V9" stroke="#111827" stroke-width="3" stroke-linecap="round"/><circle r="3" fill="#020617"/><text y="38" text-anchor="middle" font-family="monospace" font-size="11" font-weight="700" fill="#cbd5e1">#8</text></g>
</svg>